# Blender 3.5.1
# www.blender.org
mtllib PSM_Base_Low_Res.mtl
o tool_wrist_caudier_link_1
v 0.003109 0.002413 0.004058
v 0.003168 0.002708 0.002010
v 0.002288 0.003133 0.004905
v 0.002277 0.003285 0.001479
v 0.003206 0.002317 -0.000502
v 0.003092 0.002414 -0.001628
v 0.003195 0.000816 -0.003732
v 0.000935 0.000590 -0.005977
v -0.002287 0.003132 0.004909
v -0.002277 0.003284 0.001482
v -0.003109 0.002412 0.004060
v -0.003168 0.002703 0.002018
v -0.003090 0.002427 -0.001600
v -0.003248 0.000879 -0.003519
v -0.003204 0.002329 -0.000490
v -0.000935 0.000590 -0.005977
v 0.003108 -0.002391 0.004261
v 0.003168 -0.002851 0.002249
v 0.002288 -0.003037 0.005167
v 0.002276 -0.003475 0.001763
v 0.003206 -0.002684 -0.000280
v 0.003095 -0.002872 -0.001392
v 0.003193 -0.001447 -0.003639
v 0.000935 -0.001409 -0.005894
v -0.002288 -0.003041 0.005160
v -0.002277 -0.003475 0.001760
v -0.003110 -0.002392 0.004256
v -0.003168 -0.002856 0.002241
v -0.003085 -0.002870 -0.001393
v -0.003246 -0.001494 -0.003421
v -0.003204 -0.002678 -0.000296
v -0.000935 -0.001409 -0.005894
v -0.003109 0.002412 0.006202
v -0.002287 0.003132 0.007051
v -0.003110 -0.002392 0.006398
v -0.002288 -0.003041 0.007302
v 0.002288 0.003133 0.007047
v 0.003109 0.002413 0.006200
v 0.002288 -0.003037 0.007309
v 0.003108 -0.002391 0.006403
v -0.000935 -0.001409 -0.020245
v 0.000935 -0.001409 -0.020245
v -0.000935 0.000590 -0.020328
v 0.000935 0.000590 -0.020328
vn 0.6105 0.7889 0.0698
vn -0.6117 0.7880 0.0691
vn -0.6114 0.7883 0.0693
vn 0.6115 -0.7797 0.1347
vn 0.6112 -0.7800 0.1346
vn -0.6108 -0.7802 0.1347
vn 0.9996 0.0010 0.0289
vn -1.0000 0.0002 0.0034
vn 1.0000 -0.0000 -0.0000
vn 0.9989 0.0021 0.0461
vn 0.9950 -0.0042 -0.0999
vn 0.7060 -0.0296 -0.7076
vn 1.0000 -0.0000 0.0031
vn -0.9996 0.0013 0.0288
vn -1.0000 -0.0000 -0.0000
vn -0.9967 0.0023 0.0808
vn -0.9945 -0.0046 -0.1048
vn -0.7297 -0.0286 -0.6831
vn -0.0070 0.7878 -0.6159
vn 0.0047 0.9941 -0.1088
vn -0.0064 -0.8365 -0.5480
vn 0.0050 -0.9997 -0.0260
vn 0.6380 0.7663 -0.0753
vn -0.6369 0.7675 -0.0723
vn 0.6372 -0.7707 -0.0083
vn 0.6366 -0.7711 -0.0083
vn -0.6375 -0.7704 -0.0116
vn 0.0003 0.9632 -0.2689
vn -0.0001 -0.9822 -0.1881
vn 0.9999 0.0007 0.0150
vn -0.9999 0.0006 0.0142
vn -0.0000 0.0415 0.9991
vn -0.0000 1.0000 -0.0000
vn 0.6188 -0.7855 -0.0000
vn 1.0000 -0.0002 -0.0000
vn -1.0000 0.0002 -0.0000
vn -0.6589 0.7522 -0.0000
vn -0.6197 -0.7849 -0.0000
vn 0.6593 0.7518 -0.0000
vn -0.0000 -1.0000 -0.0000
vn -0.7297 0.0280 0.6832
vn 0.7303 0.0289 0.6825
vn -0.0000 -0.0415 -0.9991
s 0
usemtl 
f 1//1 2//1 4//1 3//1
f 9//2 10//3 12//3 11//2
f 19//4 20//5 18//4 17//5
f 27//6 28//6 26//6 25//6
f 1//7 17//7 18//7 2//7
f 4//8 20//8 19//8 3//8
f 8//9 24//9 42//9 44//9
f 6//10 22//10 23//10 7//10
f 21//11 22//11 6//11 5//11
f 7//12 23//12 24//12 8//12
f 9//13 25//13 26//13 10//13
f 12//14 28//14 27//14 11//14
f 32//15 16//15 43//15 41//15
f 14//16 30//16 29//16 13//16
f 29//17 31//17 15//17 13//17
f 16//18 32//18 30//18 14//18
f 6//19 7//19 14//19 13//19
f 7//20 8//20 16//20 14//20
f 29//21 30//21 23//21 22//21
f 30//22 32//22 24//22 23//22
f 2//23 5//23 6//23 4//23
f 10//24 13//24 15//24 12//24
f 20//25 22//26 21//25 18//25
f 28//27 31//27 29//27 26//27
f 4//28 6//28 13//28 10//28
f 26//29 29//29 22//29 20//29
f 2//30 18//30 21//30 5//30
f 15//31 31//31 28//31 12//31
f 4//32 10//32 26//32 20//32
f 16//33 8//33 44//33 43//33
f 19//34 17//34 40//34 39//34
f 25//35 9//35 34//35 36//35
f 11//36 27//36 35//36 33//36
f 9//37 11//37 33//37 34//37
f 27//38 25//38 36//38 35//38
f 1//39 3//39 37//39 38//39
f 17//35 1//35 38//35 40//35
f 3//15 19//15 39//15 37//15
f 24//40 32//40 41//40 42//40
f 35//41 36//41 34//41 33//41
f 39//42 40//42 38//42 37//42
f 41//43 43//43 44//43 42//43
