# Blender 3.5.1
# www.blender.org
mtllib PSM.mtl
o tool_wrist_caudier_link_1
v 0.003109 -0.002413 0.000561
v 0.003168 -0.002708 0.002609
v 0.002288 -0.003133 -0.000286
v 0.002277 -0.003285 0.003140
v 0.003206 -0.002317 0.005121
v 0.003092 -0.002414 0.006247
v 0.003195 -0.000816 0.008351
v 0.000935 -0.000590 0.010596
v -0.002287 -0.003132 -0.000290
v -0.002277 -0.003284 0.003137
v -0.003109 -0.002412 0.000559
v -0.003168 -0.002703 0.002601
v -0.003090 -0.002427 0.006219
v -0.003248 -0.000879 0.008138
v -0.003204 -0.002329 0.005109
v -0.000935 -0.000590 0.010596
v 0.003108 0.002391 0.000358
v 0.003168 0.002851 0.002370
v 0.002288 0.003037 -0.000548
v 0.002276 0.003475 0.002856
v 0.003206 0.002684 0.004899
v 0.003095 0.002872 0.006011
v 0.003193 0.001447 0.008258
v 0.000935 0.001409 0.010513
v -0.002288 0.003041 -0.000541
v -0.002277 0.003475 0.002859
v -0.003110 0.002392 0.000363
v -0.003168 0.002856 0.002378
v -0.003085 0.002870 0.006012
v -0.003246 0.001494 0.008040
v -0.003204 0.002678 0.004915
v -0.000935 0.001409 0.010513
v -0.003109 -0.002412 -0.001584
v -0.002287 -0.003132 -0.002433
v -0.003110 0.002392 -0.001780
v -0.002288 0.003041 -0.002684
v 0.002288 -0.003133 -0.002429
v 0.003109 -0.002413 -0.001582
v 0.002288 0.003037 -0.002691
v 0.003108 0.002391 -0.001785
v 0.000935 -0.000590 0.018785
v -0.000935 -0.000590 0.018785
v 0.000935 0.001409 0.018702
v -0.000935 0.001409 0.018702
vn 0.6105 -0.7889 -0.0698
vn -0.6117 -0.7880 -0.0691
vn -0.6114 -0.7883 -0.0693
vn 0.6115 0.7797 -0.1347
vn 0.6112 0.7800 -0.1346
vn -0.6108 0.7802 -0.1347
vn 0.9996 -0.0010 -0.0289
vn -1.0000 -0.0002 -0.0034
vn -0.0000 1.0000 -0.0000
vn 0.9989 -0.0021 -0.0461
vn 0.9950 0.0042 0.0999
vn 0.7060 0.0296 0.7076
vn 1.0000 -0.0000 -0.0031
vn -0.9996 -0.0013 -0.0288
vn -1.0000 -0.0000 -0.0000
vn -0.9967 -0.0023 -0.0808
vn -0.9945 0.0046 0.1048
vn -0.7297 0.0286 0.6831
vn -0.0070 -0.7878 0.6159
vn 0.0047 -0.9941 0.1088
vn -0.0064 0.8365 0.5480
vn 0.0050 0.9997 0.0260
vn 0.6380 -0.7663 0.0753
vn -0.6369 -0.7675 0.0723
vn 0.6372 0.7707 0.0083
vn 0.6368 0.7710 0.0083
vn 0.6369 0.7709 0.0083
vn -0.6375 0.7704 0.0116
vn 0.0003 -0.9632 0.2689
vn -0.0001 0.9822 0.1881
vn 0.9999 -0.0007 -0.0150
vn -0.9999 -0.0006 -0.0142
vn -0.0000 -0.0415 -0.9991
vn 1.0000 -0.0000 -0.0000
vn 0.6188 0.7855 -0.0000
vn 1.0000 0.0002 -0.0000
vn -1.0000 -0.0002 -0.0000
vn -0.6589 -0.7522 -0.0000
vn -0.6197 0.7849 -0.0000
vn 0.6593 -0.7518 -0.0000
vn -0.0000 -1.0000 -0.0000
vn -0.7297 -0.0280 -0.6832
vn 0.7303 -0.0289 -0.6825
vn -0.0000 0.0415 0.9991
vn -0.0003 -0.9919 0.1271
vn 0.0001 -0.9919 0.1272
vn 0.0002 0.9990 0.0443
vn 0.0007 0.9990 0.0442
s 0
usemtl 
f 1//1 2//1 4//1 3//1
f 9//2 10//3 12//3 11//2
f 19//4 20//5 18//4 17//5
f 27//6 28//6 26//6 25//6
f 1//7 17//7 18//7 2//7
f 4//8 20//8 19//8 3//8
f 24//9 32//9 44//9 43//9
f 6//10 22//10 23//10 7//10
f 21//11 22//11 6//11 5//11
f 7//12 23//12 24//12 8//12
f 9//13 25//13 26//13 10//13
f 12//14 28//14 27//14 11//14
f 32//15 16//15 42//15 44//15
f 14//16 30//16 29//16 13//16
f 29//17 31//17 15//17 13//17
f 16//18 32//18 30//18 14//18
f 6//19 7//19 14//19 13//19
f 7//20 8//20 16//20 14//20
f 29//21 30//21 23//21 22//21
f 30//22 32//22 24//22 23//22
f 2//23 5//23 6//23 4//23
f 10//24 13//24 15//24 12//24
f 20//25 22//26 21//27 18//27
f 28//28 31//28 29//28 26//28
f 4//29 6//29 13//29 10//29
f 26//30 29//30 22//30 20//30
f 2//31 18//31 21//31 5//31
f 15//32 31//32 28//32 12//32
f 4//33 10//33 26//33 20//33
f 8//34 24//34 43//34 41//34
f 19//35 17//35 40//35 39//35
f 25//36 9//36 34//36 36//36
f 11//37 27//37 35//37 33//37
f 9//38 11//38 33//38 34//38
f 27//39 25//39 36//39 35//39
f 1//40 3//40 37//40 38//40
f 17//36 1//36 38//36 40//36
f 3//15 19//15 39//15 37//15
f 16//41 8//41 41//41 42//41
f 35//42 36//42 34//42 33//42
f 39//43 40//43 38//43 37//43
f 43//44 44//44 42//44 41//44
f 25//45 19//45 20//46 26//45
f 3//47 9//48 10//47 4//47
